DataRate=1200.000000
DataType=double
version=3
OpenSimVersion=4.3-2021-08-27-4bc7ad9
endheader
time	f1_1	f1_2	f1_3	p1_1	p1_2	p1_3	m1_1	m1_2	m1_3	f2_1	f2_2	f2_3	p2_1	p2_2	p2_3	m2_1	m2_2	m2_3	f3_1	f3_2	f3_3	p3_1	p3_2	p3_3	m3_1	m3_2	m3_3
2.21	4.293991754232453	-18.20863684719991	195.0447387695312	-255.6999969482422	396.8999938964844	0	14043.05904980629	-23434.84182024033	-2066.370903360091	-0.01354050155717812	0.1841119317736735	0.24423748254776	253.7999877929688	225.3000030517578	0	-64.75908137776754	-106.2982233608938	-16.01211021413396	-0.4646301518332514	-0.07408899747257702	-0.05865557864308357	946.699951171875	380.3999938964844	0	-87.15812969194403	108.0725269084556	30.46819096592167
2.210833333333333	4.440392063134182	-18.54978126559958	197.1879730224609	-255.6999969482422	396.8999938964844	0	14130.5383665391	-23279.3242758193	-2102.618336037209	0.2502826057034022	0.4949854765684737	0.5970130562782288	253.7999877929688	225.3000030517578	0	-0.690877357153212	-3.252933487986817	12.54450613114279	-0.2792604448569177	0.126163272672406	-0.4126060903072357	946.699951171875	380.3999938964844	0	29.35985039276757	2.172419542832766	-34.11892991746041
2.211666666666667	4.790044985359518	-18.70810421115259	196.8255157470703	-255.6999969482422	396.8999938964844	0	14122.57062838174	-23481.00388113127	-2136.313574685559	-0.1888930784685136	0.1545222167827003	2.076436519622803	253.7999877929688	225.3000030517578	0	121.459037868481	120.6820603342167	11.48810259145649	0.2025719628056945	0.08769954173044238	0.3930579721927643	946.699951171875	380.3999938964844	0	-1.590785952600945	50.81021408232327	28.94326895482305
2.2125	5.018209568532057	-18.61652836515509	198.0740814208984	-255.6999969482422	396.8999938964844	0	14224.61241809662	-23652.61525831362	-2201.339843244153	0.1874270489155165	0.1376501500591406	0.1569800972938538	253.7999877929688	225.3000030517578	0	20.70980104036134	19.56564821854526	11.37445361208361	0.04207752855792341	0.1156311170839376	0.8404685854911804	946.699951171875	380.3999938964844	0	67.66901424725953	-50.7452004032497	-11.52672405698011
2.213333333333333	5.286868116138117	-18.52422196497598	199.0567779541016	-255.6999969482422	396.8999938964844	0	14258.83348361788	-23627.41994239034	-2233.161788936208	-0.01507550862317944	0.1387656659423384	0.4192023873329163	253.7999877929688	225.3000030517578	0	-76.28280100623782	-39.04253424230581	15.00457956723298	-0.2138432091615004	-0.2471952126558	-0.9527595639228821	946.699951171875	380.3999938964844	0	23.37181693115926	-0.774778836813639	-42.69368836076747
2.214166666666667	5.491320404822189	-18.29347835655505	200.6683197021484	-255.6999969482422	396.8999938964844	0	14228.55826156673	-23926.79059758988	-2253.650271889832	0.1353756126320238	0.2677318467471688	0.6811042428016663	253.7999877929688	225.3000030517578	0	-38.52661147048422	253.0600657196427	16.11586393080712	0.03864212089239864	-0.2630653446850336	-0.1493309289216995	946.699951171875	380.3999938964844	0	71.82670766885738	18.53385809334023	-48.13472455907531
2.215	5.680522802126617	-18.38400284473336	201.3791198730469	-255.6999969482422	396.8999938964844	0	14292.32079475014	-24262.96699696047	-2310.999573653705	0.07575261052882298	0.02725013087429096	0.24210125207901	253.7999877929688	225.3000030517578	0	-71.81944072125438	-23.39219337867626	-7.465374135880974	-0.02310878778469768	0.1303355884948277	0.03479687497019768	946.699951171875	380.3999938964844	0	-147.7125861694875	21.63798258010554	-48.27952676256078
2.215833333333333	6.044228899682815	-17.88242511124074	201.9178924560547	-255.6999969482422	396.8999938964844	0	14332.64742555384	-24270.3735535139	-2310.15934353726	-1.038352973256661	0.001849602840917467	-0.45308917760849	253.7999877929688	225.3000030517578	0	-256.519998490024	9.044976654622674	-27.8558554329776	-0.1860643208236002	0.0695248911591775	0.4864493906497955	946.699951171875	380.3999938964844	0	-170.8674355757223	-101.0334704127813	49.85292842955577
2.216666666666667	6.436709398768286	-18.49770869295401	203.0739898681641	-255.6999969482422	396.8999938964844	0	14405.80628825562	-24537.48749596383	-2312.973189017807	0.01306903871158386	0.02519949586977783	-0.4546532034873962	253.7999877929688	225.3000030517578	0	15.23280173656713	47.70309784556293	-2.616718947469276	-0.0539407056341954	-0.03545317941329332	-0.5897453427314758	946.699951171875	380.3999938964844	0	32.86677667677937	50.55672996778377	94.14409235580814
2.2175	6.940302862588235	-18.51710593538665	202.7089691162109	-255.6999969482422	396.8999938964844	0	14384.36211760723	-24597.70189724015	-2428.008201168362	-0.1807714072489266	-0.02071206679567892	1.376500725746155	253.7999877929688	225.3000030517578	0	82.25859939842135	-23.35950692753048	-2.778217420076357	-0.05077097083076897	0.04012170715111173	0.214820072054863	946.699951171875	380.3999938964844	0	93.84149055771323	-106.134563367305	-33.75954453528117
2.218333333333333	7.239527837089562	-18.64065033535243	204.2137298583984	-255.6999969482422	396.8999938964844	0	15000.45891475445	-24488.82050496824	-2567.240345469244	0.1271202235605413	0.1795076431754942	1.812543511390686	253.7999877929688	225.3000030517578	0	-61.55592488344693	165.2578633659837	-2.193326766264361	0.1082146798673771	-0.09794972429266022	0.2109595984220505	946.699951171875	380.3999938964844	0	59.39394370820095	54.70671333034135	10.93481868932389
2.219166666666667	7.256734504085734	-18.15183119618746	205.2985382080078	-255.6999969482422	396.8999938964844	0	14576.62631398478	-24865.91199089924	-2543.564198949427	0.004667793986152097	-0.1099769595944795	0.5026450753211975	253.7999877929688	225.3000030517578	0	-134.6784840430989	220.8822368603412	23.05179909660623	0.1324356962959092	-0.1824137007274171	0.8357688784599304	946.699951171875	380.3999938964844	0	-52.83211838302818	53.91158239308524	11.26395661297953
